<svg xmlns="http://www.w3.org/2000/svg" version="1.1" xmlns:xlink="http://www.w3.org/1999/xlink" xmlns:svgjs="http://svgjs.dev/svgjs" viewBox="0 0 800 800"><g fill="none" stroke-width="2" stroke="#5e81ac" stroke-linecap="round" stroke-dasharray="13 4"><line x1="277.5" y1="400" x2="522.5" y2="400" transform="rotate(0, 400, 400)" opacity="0.78"></line><line x1="195.5" y1="400" x2="604.5" y2="400" transform="rotate(8, 400, 400)" opacity="0.54"></line><line x1="271.5" y1="400" x2="528.5" y2="400" transform="rotate(16, 400, 400)" opacity="0.33"></line><line x1="169.5" y1="400" x2="630.5" y2="400" transform="rotate(24, 400, 400)" opacity="0.72"></line><line x1="295.5" y1="400" x2="504.5" y2="400" transform="rotate(32, 400, 400)" opacity="0.21"></line><line x1="94" y1="400" x2="706" y2="400" transform="rotate(40, 400, 400)" opacity="0.30"></line><line x1="235" y1="400" x2="565" y2="400" transform="rotate(48, 400, 400)" opacity="0.89"></line><line x1="83" y1="400" x2="717" y2="400" transform="rotate(56, 400, 400)" opacity="0.45"></line><line x1="202" y1="400" x2="598" y2="400" transform="rotate(64, 400, 400)" opacity="0.09"></line><line x1="307.5" y1="400" x2="492.5" y2="400" transform="rotate(72, 400, 400)" opacity="0.09"></line><line x1="124.5" y1="400" x2="675.5" y2="400" transform="rotate(80, 400, 400)" opacity="0.26"></line><line x1="88.5" y1="400" x2="711.5" y2="400" transform="rotate(88, 400, 400)" opacity="0.58"></line><line x1="136.5" y1="400" x2="663.5" y2="400" transform="rotate(96, 400, 400)" opacity="0.80"></line><line x1="116" y1="400" x2="684" y2="400" transform="rotate(104, 400, 400)" opacity="0.37"></line><line x1="181.5" y1="400" x2="618.5" y2="400" transform="rotate(112, 400, 400)" opacity="0.53"></line><line x1="177.5" y1="400" x2="622.5" y2="400" transform="rotate(120, 400, 400)" opacity="0.20"></line><line x1="115.5" y1="400" x2="684.5" y2="400" transform="rotate(128, 400, 400)" opacity="0.88"></line><line x1="91.5" y1="400" x2="708.5" y2="400" transform="rotate(136, 400, 400)" opacity="0.71"></line><line x1="284.5" y1="400" x2="515.5" y2="400" transform="rotate(144, 400, 400)" opacity="0.49"></line><line x1="78.5" y1="400" x2="721.5" y2="400" transform="rotate(152, 400, 400)" opacity="0.88"></line><line x1="279" y1="400" x2="521" y2="400" transform="rotate(160, 400, 400)" opacity="0.63"></line><line x1="63.5" y1="400" x2="736.5" y2="400" transform="rotate(168, 400, 400)" opacity="0.45"></line><line x1="162.5" y1="400" x2="637.5" y2="400" transform="rotate(176, 400, 400)" opacity="0.32"></line><line x1="108.5" y1="400" x2="691.5" y2="400" transform="rotate(184, 400, 400)" opacity="0.41"></line><line x1="322.5" y1="400" x2="477.5" y2="400" transform="rotate(192, 400, 400)" opacity="0.27"></line><line x1="217.5" y1="400" x2="582.5" y2="400" transform="rotate(200, 400, 400)" opacity="0.66"></line><line x1="151" y1="400" x2="649" y2="400" transform="rotate(208, 400, 400)" opacity="0.10"></line><line x1="246" y1="400" x2="554" y2="400" transform="rotate(216, 400, 400)" opacity="0.56"></line><line x1="228.5" y1="400" x2="571.5" y2="400" transform="rotate(224, 400, 400)" opacity="0.71"></line><line x1="308.5" y1="400" x2="491.5" y2="400" transform="rotate(232, 400, 400)" opacity="0.92"></line><line x1="109" y1="400" x2="691" y2="400" transform="rotate(240, 400, 400)" opacity="0.62"></line><line x1="234" y1="400" x2="566" y2="400" transform="rotate(248, 400, 400)" opacity="0.65"></line><line x1="321.5" y1="400" x2="478.5" y2="400" transform="rotate(256, 400, 400)" opacity="0.49"></line><line x1="162.5" y1="400" x2="637.5" y2="400" transform="rotate(264, 400, 400)" opacity="0.71"></line><line x1="251.5" y1="400" x2="548.5" y2="400" transform="rotate(272, 400, 400)" opacity="0.54"></line><line x1="236.5" y1="400" x2="563.5" y2="400" transform="rotate(280, 400, 400)" opacity="1.00"></line><line x1="120.5" y1="400" x2="679.5" y2="400" transform="rotate(288, 400, 400)" opacity="0.40"></line><line x1="89" y1="400" x2="711" y2="400" transform="rotate(296, 400, 400)" opacity="0.31"></line><line x1="195" y1="400" x2="605" y2="400" transform="rotate(304, 400, 400)" opacity="0.42"></line><line x1="96" y1="400" x2="704" y2="400" transform="rotate(312, 400, 400)" opacity="0.68"></line><line x1="188.5" y1="400" x2="611.5" y2="400" transform="rotate(320, 400, 400)" opacity="0.96"></line><line x1="108" y1="400" x2="692" y2="400" transform="rotate(328, 400, 400)" opacity="0.63"></line><line x1="168" y1="400" x2="632" y2="400" transform="rotate(336, 400, 400)" opacity="0.44"></line><line x1="312" y1="400" x2="488" y2="400" transform="rotate(344, 400, 400)" opacity="0.72"></line><line x1="66" y1="400" x2="734" y2="400" transform="rotate(352, 400, 400)" opacity="0.09"></line><line x1="122.5" y1="400" x2="677.5" y2="400" transform="rotate(360, 400, 400)" opacity="0.19"></line><line x1="172.5" y1="400" x2="627.5" y2="400" transform="rotate(368, 400, 400)" opacity="0.64"></line><line x1="233.5" y1="400" x2="566.5" y2="400" transform="rotate(376, 400, 400)" opacity="0.63"></line></g></svg>